<svg version="1.2" baseProfile="tiny-ps" xmlns="http://www.w3.org/2000/svg" viewBox="0 0 859 863" width="859" height="863">
	<title>&lt;Clip Group&gt;</title>
	<defs>
		<clipPath clipPathUnits="userSpaceOnUse" id="cp1">
			<path d="M879.27 2.98L879.27 758.81C879.27 767.66 872.1 774.84 863.25 774.84L-313.25 774.84C-322.1 774.84 -329.27 767.66 -329.27 758.81L-329.27 2.98C-329.27 -5.87 -322.1 -13.05 -313.25 -13.05L863.25 -13.05C872.1 -13.05 879.27 -5.87 879.27 2.98Z" />
		</clipPath>
	</defs>
	<style>
		tspan { white-space:pre }
		.shp0 { opacity: 0.302;fill: #d5dcef } 
	</style>
	<g id="&lt;Clip Group&gt;" clip-path="url(#cp1)">
		<path id="&lt;Path&gt;" class="shp0" d="M947.78 310.35C939.87 351.22 955.81 386.54 969.67 424.03C982.33 458.25 988.66 493.57 977.82 529.21C968.02 561.44 947.48 589.41 920.24 609.05C890.45 630.53 854.29 636.15 818.31 634.52C781.35 632.84 742.51 623.32 705.74 631.11C670.86 638.5 649.66 664.93 624.2 687.44C596.43 711.98 565.18 725.52 527.59 718.84C485.92 711.44 452.34 683.29 412.36 671.28C392.57 665.34 372.39 663.94 353.92 674.49C337.31 683.97 322.96 695.2 303.83 699.51C265.57 708.13 222.39 701.88 190.35 680.99C97.29 620.3 140.14 516.78 161.94 487.27C183.85 457.61 224.01 448.67 243.51 417.17C252.78 402.2 257.29 384.81 256.12 367.21C254.78 347.14 246.67 328.07 243.38 308.29C237.72 274.18 245.09 238.75 264.41 209.93C283.62 181.26 310.79 164.13 342.83 152.78C369.58 143.3 403.16 137.91 423.31 116.19C436.16 102.33 438 83.47 439.11 65.44C439.98 51.33 441.09 37.31 442.97 23.36C439.71 19.67 438.07 14.62 439.76 9.12C454.1 -37.57 479.84 -81.2 519.6 -110.56C553.68 -135.73 596.8 -146.31 638.62 -139.36C658.07 -136.13 677.01 -128.38 692.81 -116.56C711.26 -102.77 724.25 -82.91 745.39 -72.74C781.48 -55.39 824.88 -59.61 863.44 -52.3C908.23 -43.81 940.3 -18.44 961.79 21.5C970.7 38.88 977.96 57.1 982.76 76.04C992.58 114.73 993.1 155.72 984.14 194.61C975.04 234.11 955.49 270.48 947.78 310.35Z" />
	</g>
</svg>